<?xml version="1.0" encoding="UTF-8" standalone="no"?>

<svg
	xmlns="http://www.w3.org/2000/svg" version="1.1"
	xmlns:freecad="http://www.freecadweb.org/wiki/index.php?title=Svg_Namespace"
	width="210mm"
	height="297mm"
	viewBox="0 0 210 297">
	<!-- Working space 20 10 200 287 -->
	<!-- Title block 20 227 200 287 -->
	<g>
		<rect
			id="drawing-border"
			style="fill:none;stroke:#000000;stroke-width:0.35;stroke-linecap:miter;stroke-miterlimit:4"
			width="180"
			height="277"
			x="20"
			y="10" />
			<!-- width-30, height-20 -->
		<g
			transform="translate(0,0)">
			<!-- A4 Portrait based for other formats width-210, height-297 -->
			<!--        page       rect   translation
			               w    h    rw   rh   tx   ty
			        A4-P  210  297  180  277    0    0
			        A3-L  420  297  390  277  210    0
			        A2-L  594  420  564  400  384  123
			        A1-L  841  594  811  574  631  297
			        A0-L 1189  841 1159  821  979  544
			-->
			<g
				id="titleblock-structure"
				style="fill:none;stroke:#000000;stroke-width:0.35;stroke-linecap:miter;stroke-miterlimit:4">
				<rect width="180" height="60" x="20" y="227" />
				<path d="m 20,239 h 180" />
				<path d="m 80,227 v 12" />
				<path d="m 140,239 v 48" />
				<path d="m 160,239 v 12" />
				<path d="m 180,239 v 12" />
				<path d="m 140,251 h 60" />
				<path d="m 140,275 h 60" />
				<path d="m 180,275 v 12" />
			</g>
			<g
				id="titleblock-text-non-editable"
				style="font-size:3px;text-anchor:start;fill:#000000;font-family:osifont"
				xml:space="preserve">
				<text x="21" y="230">Created by:</text>
				<text x="81" y="230">Title:</text>
				<text x="21" y="242">Supplementary information:</text>
				<text x="141" y="242">Size:</text>
				<text x="161" y="242">Sheet:</text>
				<text x="181" y="242">Scale:</text>
				<text x="141" y="254">Part number:</text>
				<text x="141" y="266">Drawing number:</text>
				<text x="141" y="278">Date:</text>
				<text x="181" y="278">Revision:</text>
			</g>
			<g
				id="titleblock-text-editable"
				style="font-size:5px;text-anchor:middle;fill:#000000;font-family:osifont"
				xml:space="preserve">
				<text freecad:editable="AUTHOR NAME" x="50" y="236"><tspan>AUTHOR NAME</tspan></text>
				<text freecad:editable="DRAWING TITLE" x="140" y="236"><tspan>DRAWING TITLE</tspan></text>
				<text freecad:editable="SI-1" x="80" y="248"><tspan></tspan></text>
				<text freecad:editable="SI-2" x="80" y="255"><tspan></tspan></text>
				<text freecad:editable="FreeCAD DRAWING" x="80" y="262"><tspan>FreeCAD DRAWING</tspan></text>
				<text freecad:editable="SI-4" x="80" y="269"><tspan></tspan></text>
				<text freecad:editable="SI-5" x="80" y="276"><tspan></tspan></text>
				<text freecad:editable="SI-6" x="80" y="283"><tspan></tspan></text>
				<text freecad:editable="FC-SI" x="150" y="248"><tspan>A4</tspan></text>
				<text freecad:editable="FC-SH" x="170" y="248"><tspan>X / Y</tspan></text>
				<text freecad:editable="FC-SC" x="190" y="248"><tspan>SCALE</tspan></text>
				<text freecad:editable="PN" x="170" y="260"><tspan>PN</tspan></text>
				<text freecad:editable="DN" x="170" y="272"><tspan>DN</tspan></text>
				<text freecad:editable="FC-DATE" x="160" y="284"><tspan>DD/MM/YYYY</tspan></text>
				<text freecad:editable="FC-REV" x="190" y="284"><tspan>REV A</tspan></text>
			</g>
			<!-- Set display:none to hide FreeCAD Logo -->
			<g
				style="display:inline"
				id="freecad-logo"
				transform="translate(128.5,276)"
				fill-rule="evenodd"
				stroke="#000"
				stroke-width="0.35"
				fill="none">
					<path d="m0.1524 0.15254v8.8549h1.9744v-3.4652h1.396v-1.3661h-1.396v-1.4745h3.4391v-2.5441l-5.4135-0.005z"/>
					<path d="m7.7927 3.4504-0.50715-0.176-0.48387-1.2366-0.76115 0.04-0.34718 1.2787-0.4859 0.23269-1.2119-0.53015-0.51188 0.56882 0.65892 1.1485-0.18006 0.50567-1.2366 0.48387 0.044064 0.76263 1.2787 0.34718 0.23269 0.4859-0.53421 1.2104 0.56882 0.51188 1.1485-0.65891 0.50973 0.18155 0.4798 1.2351 0.7667-0.04258 0.34311-1.2802 0.4859-0.23269 1.2145 0.5357 0.51188-0.56882-0.65891-1.1485 0.17748-0.51122 1.2351-0.4798-0.03851-0.76521-1.2802-0.34311-0.23269-0.4859 0.53163-1.216-0.56881-0.51184zm-0.5715 1.2244 0.23576 0.13679 0.20426 0.18519 0.16353 0.22101 0.11763 0.24572 0.06916 0.26489 0.01146 0.27146-0.03921 0.27139-0.08948 0.25764-0.14234 0.23834-0.17964 0.20167-0.22101 0.16353-0.24572 0.11763-0.26489 0.06916-0.27295 0.01553-0.2719-0.04-0.2576-0.089-0.2383-0.143-0.2002-0.183-0.165-0.217-0.1177-0.246-0.0676-0.269-0.0156-0.273 0.039206-0.2714 0.089484-0.25764 0.14085-0.23427 0.18113-0.20574 0.22101-0.16352 0.24572-0.11763 0.26895-0.06768 0.27147-0.01146 0.27139 0.03921 0.25764 0.08948z"/>
			</g>
		</g>
	</g>
<g id="Ortho_0_0"
   transform="rotate(-90,150,65.6667) translate(150,65.6667) scale(0.5,0.5)"
  >
<g   fill="none"
   stroke="rgb(0, 0, 0)"
   stroke-linecap="butt"
   stroke-linejoin="miter"
   stroke-width="0.700000"
   transform="scale(1,-1)"
  >
<path id= "1" d=" M 0 -57.9556 L 0 -59.6593 " />
<path id= "2" d=" M 0 -51.9615 L 0 -57.9556 " />
<path id= "3" d=" M 0 -42.4264 L 0 -51.9615 " />
<path id= "4" d=" M 0 -30 L 0 -42.4264 " />
<path id= "5" d=" M 0 -15.5291 L 0 -30 " />
<path id= "6" d=" M 0 1.10218e-14 L 0 -15.5291 " />
<path id= "7" d=" M 0 15.5291 L 0 1.06581e-14 " />
<path id= "8" d=" M 0 30 L 0 15.5291 " />
<path id= "9" d=" M 0 42.4264 L 0 30 " />
<path id= "10" d=" M 0 51.9615 L 0 42.4264 " />
<path id= "11" d=" M 0 57.9556 L 0 51.9615 " />
<path id= "12" d=" M 0 60 L 0 57.9556 " />
<path id= "13" d=" M 0 -60 L 0 -59.6593 " />
<path id= "14" d=" M 0 -60 L 10 -60 " />
<path id= "15" d=" M 10 -59.6593 L 10 -60 " />
<path id= "16" d=" M 10 -59.6593 L 0 -59.6593 " />
<path id= "17" d=" M 10 60 L 10 57.9556 " />
<path id= "18" d=" M 10 57.9556 L 10 51.9615 " />
<path id= "19" d=" M 10 51.9615 L 10 42.4264 " />
<path id= "20" d=" M 10 42.4264 L 10 30 " />
<path id= "21" d=" M 10 30 L 10 15.5291 " />
<path id= "22" d=" M 10 15.5291 L 10 1.06581e-14 " />
<path id= "23" d=" M 10 1.10218e-14 L 10 -15.5291 " />
<path id= "24" d=" M 10 -15.5291 L 10 -30 " />
<path id= "25" d=" M 10 -30 L 10 -42.4264 " />
<path id= "26" d=" M 10 -42.4264 L 10 -51.9615 " />
<path id= "27" d=" M 10 -51.9615 L 10 -57.9556 " />
<path id= "28" d=" M 10 -57.9556 L 10 -59.6593 " />
<path id= "29" d=" M 10 -57.9556 L 0 -57.9556 " />
<path id= "30" d=" M 10 -51.9615 L 0 -51.9615 " />
<path id= "31" d=" M 10 -42.4264 L 0 -42.4264 " />
<path id= "32" d=" M 10 -30 L 0 -30 " />
<path id= "33" d=" M 10 -15.5291 L 0 -15.5291 " />
<path id= "34" d=" M 10 1.10218e-14 L 0 1.10218e-14 " />
<path id= "35" d=" M 10 15.5291 L 0 15.5291 " />
<path id= "36" d=" M 10 30 L 0 30 " />
<path id= "37" d=" M 10 42.4264 L 0 42.4264 " />
<path id= "38" d=" M 10 51.9615 L 0 51.9615 " />
<path id= "39" d=" M 10 57.9556 L 0 57.9556 " />
<path id= "40" d=" M 10 60 L 0 60 " />
</g>
</g>



<g id="Ortho_-1_-1"
   transform="rotate(60,70,148.375) translate(70,148.375) scale(0.5,0.5)"
  >
<g   fill="none"
   stroke="rgb(0, 0, 0)"
   stroke-linecap="butt"
   stroke-linejoin="miter"
   stroke-width="0.700000"
   transform="scale(1,-1)"
  >
<path id= "1" d=" M 36.7423 45.7081 L 30 51.9615 " />
<path id= "2" d=" M 40.9808 36.3397 L 36.7423 45.7081 " />
<path id= "3" d=" M 42.4264 24.4949 L 40.9808 36.3397 " />
<path id= "4" d=" M 40.9808 10.9808 L 42.4264 24.4949 " />
<path id= "5" d=" M 36.7423 -3.28169 L 40.9808 10.9808 " />
<path id= "6" d=" M 30 -17.3205 L 36.7423 -3.28169 " />
<path id= "7" d=" M 21.2132 -30.179 L 30 -17.3205 " />
<path id= "8" d=" M 10.9808 -40.9808 L 21.2132 -30.179 " />
<path id= "9" d=" M -5.19574e-15 -48.9898 L 10.9808 -40.9808 " />
<path id= "10" d=" M -10.9808 -53.6603 L -3.55271e-15 -48.9898 " />
<path id= "11" d=" M -21.2132 -54.6739 L -10.9808 -53.6603 " />
<path id= "12" d=" M -30 -51.9615 L -21.2132 -54.6739 " />
<path id= "13" d=" M -5.24094 53.8507 L -7.07107 53.0723 " />
<path id= "14" d=" M -8.90119 51.7374 L -18.0518 45.0632 " />
<path id= "15" d=" M -18.0518 45.0632 L -28.2843 34.2614 " />
<path id= "16" d=" M -28.2843 34.2614 L -37.0711 21.403 " />
<path id= "17" d=" M -37.0711 21.403 L -43.8134 7.36418 " />
<path id= "18" d=" M -43.8134 7.36418 L -48.0518 -6.89828 " />
<path id= "19" d=" M -48.0518 -6.89828 L -49.4975 -20.4124 " />
<path id= "20" d=" M -49.4975 -20.4124 L -48.0518 -32.2573 " />
<path id= "21" d=" M -48.0518 -32.2573 L -43.8134 -41.6256 " />
<path id= "22" d=" M -43.8134 -41.6256 L -37.0711 -47.879 " />
<path id= "23" d=" M -37.0711 -47.879 L -28.2843 -50.5914 " />
<path id= "24" d=" M -28.2843 -50.5914 L -18.0518 -49.5778 " />
<path id= "25" d=" M -18.0518 -49.5778 L -7.07107 -44.9073 " />
<path id= "26" d=" M -7.07107 -44.9073 L 3.90969 -36.8983 " />
<path id= "27" d=" M 3.90969 -36.8983 L 14.1421 -26.0965 " />
<path id= "28" d=" M 14.1421 -26.0965 L 22.9289 -13.238 " />
<path id= "29" d=" M 22.9289 -13.238 L 29.6713 0.800789 " />
<path id= "30" d=" M 29.6713 0.800789 L 33.9097 15.0632 " />
<path id= "31" d=" M 33.9097 15.0632 L 35.3553 28.5774 " />
<path id= "32" d=" M 35.3553 28.5774 L 33.9097 40.4222 " />
<path id= "33" d=" M 33.9097 40.4222 L 29.6713 49.7906 " />
<path id= "34" d=" M 29.6713 49.7906 L 22.9289 56.044 " />
<path id= "35" d=" M 22.9289 56.044 L 14.1421 58.7563 " />
<path id= "36" d=" M 14.1421 58.7563 L 3.90969 57.7427 " />
<path id= "37" d=" M 3.90969 57.7427 L -5.24094 53.8507 " />
<path id= "38" d=" M -7.07107 53.0723 L -8.90119 51.7374 " />
<path id= "39" d=" M -10.6066 42.8661 L -10.4861 43.9922 " />
<path id= "40" d=" M -10.4861 43.9922 L -10.1329 45.1808 " />
<path id= "41" d=" M -10.1329 45.1808 L -9.57107 46.3507 " />
<path id= "42" d=" M -9.57107 46.3507 L -8.83883 47.4222 " />
<path id= "43" d=" M -8.83883 47.4222 L -7.98613 48.3224 " />
<path id= "44" d=" M -7.98613 48.3224 L -7.07107 48.9898 " />
<path id= "45" d=" M -7.07107 48.9898 L -6.156 49.379 " />
<path id= "46" d=" M -6.156 49.379 L -5.3033 49.4635 " />
<path id= "47" d=" M -5.3033 49.4635 L -4.57107 49.2374 " />
<path id= "48" d=" M -4.57107 49.2374 L -4.00921 48.7163 " />
<path id= "49" d=" M -4.00921 48.7163 L -3.656 47.9356 " />
<path id= "50" d=" M -3.656 47.9356 L -3.53553 46.9486 " />
<path id= "51" d=" M -3.53553 46.9486 L -3.59577 46.3855 " />
<path id= "52" d=" M -3.59577 46.3855 L -3.656 45.8224 " />
<path id= "53" d=" M -3.656 45.8224 L -4.00921 44.6338 " />
<path id= "54" d=" M -4.00921 44.6338 L -4.57107 43.4639 " />
<path id= "55" d=" M -4.57107 43.4639 L -5.3033 42.3924 " />
<path id= "56" d=" M -5.3033 42.3924 L -6.156 41.4922 " />
<path id= "57" d=" M -6.156 41.4922 L -7.07107 40.8248 " />
<path id= "58" d=" M -7.07107 40.8248 L -7.98613 40.4356 " />
<path id= "59" d=" M -7.98613 40.4356 L -8.83883 40.3512 " />
<path id= "60" d=" M -8.83883 40.3512 L -9.57107 40.5772 " />
<path id= "61" d=" M -9.57107 40.5772 L -10.1329 41.0983 " />
<path id= "62" d=" M -10.1329 41.0983 L -10.4861 41.879 " />
<path id= "63" d=" M -10.4861 41.879 L -10.5464 42.3725 " />
<path id= "64" d=" M -10.5464 42.3725 L -10.6066 42.8661 " />
<path id= "65" d=" M -9.80312 1.65983 L -9.89949 2.44949 " />
<path id= "66" d=" M -9.89949 2.44949 L -9.80312 3.35043 " />
<path id= "67" d=" M -9.80312 3.35043 L -9.52056 4.30126 " />
<path id= "68" d=" M -9.52056 4.30126 L -9.07107 5.23718 " />
<path id= "69" d=" M -9.07107 5.23718 L -8.48528 6.09441 " />
<path id= "70" d=" M -8.48528 6.09441 L -7.80312 6.81453 " />
<path id= "71" d=" M -7.80312 6.81453 L -7.07107 7.34847 " />
<path id= "72" d=" M -7.07107 7.34847 L -6.33902 7.65983 " />
<path id= "73" d=" M -6.33902 7.65983 L -5.65685 7.72741 " />
<path id= "74" d=" M -5.65685 7.72741 L -5.07107 7.54658 " />
<path id= "75" d=" M -5.07107 7.54658 L -4.62158 7.12969 " />
<path id= "76" d=" M -4.62158 7.12969 L -4.33902 6.50513 " />
<path id= "77" d=" M -4.33902 6.50513 L -4.24264 5.71548 " />
<path id= "78" d=" M -4.24264 5.71548 L -4.33902 4.81453 " />
<path id= "79" d=" M -4.33902 4.81453 L -4.62158 3.8637 " />
<path id= "80" d=" M -4.62158 3.8637 L -5.07107 2.92778 " />
<path id= "81" d=" M -5.07107 2.92778 L -5.65685 2.07055 " />
<path id= "82" d=" M -5.65685 2.07055 L -6.33902 1.35043 " />
<path id= "83" d=" M -6.33902 1.35043 L -7.07107 0.816497 " />
<path id= "84" d=" M -7.07107 0.816497 L -7.80312 0.505133 " />
<path id= "85" d=" M -7.80312 0.505133 L -8.48528 0.437559 " />
<path id= "86" d=" M -8.48528 0.437559 L -9.07107 0.618381 " />
<path id= "87" d=" M -9.07107 0.618381 L -9.52056 1.03528 " />
<path id= "88" d=" M -9.52056 1.03528 L -9.80312 1.65983 " />
<path id= "89" d=" M 22.9289 56.044 L 30 51.9615 " />
<path id= "90" d=" M 29.6713 49.7906 L 36.7423 45.7081 " />
<path id= "91" d=" M 33.9097 40.4222 L 40.9808 36.3397 " />
<path id= "92" d=" M 35.3553 28.5774 L 42.4264 24.4949 " />
<path id= "93" d=" M 33.9097 15.0632 L 40.9808 10.9808 " />
<path id= "94" d=" M 29.6713 0.800789 L 36.7423 -3.28169 " />
<path id= "95" d=" M 22.9289 -13.238 L 30 -17.3205 " />
<path id= "96" d=" M 14.1421 -26.0965 L 21.2132 -30.179 " />
<path id= "97" d=" M 3.90969 -36.8983 L 10.9808 -40.9808 " />
<path id= "98" d=" M -7.07107 -44.9073 L -5.32907e-15 -48.9898 " />
<path id= "99" d=" M -18.0518 -49.5778 L -10.9808 -53.6603 " />
<path id= "100" d=" M -28.2843 -50.5914 L -21.2132 -54.6739 " />
<path id= "101" d=" M -37.0711 -47.879 L -30 -51.9615 " />
<path id= "102" d=" M -5.65685 7.72741 L -4.62158 7.12969 " />
<path id= "103" d=" M -6.33902 7.65983 L -4.33902 6.50513 " />
<path id= "104" d=" M -7.07107 7.34847 L -4.24264 5.71548 " />
<path id= "105" d=" M -7.80312 6.81453 L -4.33902 4.81453 " />
<path id= "106" d=" M -8.48528 6.09441 L -4.62158 3.8637 " />
<path id= "107" d=" M -9.07107 5.23718 L -5.07107 2.92778 " />
<path id= "108" d=" M -9.52056 4.30126 L -5.65685 2.07055 " />
<path id= "109" d=" M -9.80312 3.35043 L -6.33902 1.35043 " />
<path id= "110" d=" M -9.89949 2.44949 L -7.07107 0.816497 " />
<path id= "111" d=" M -9.80312 1.65983 L -7.80312 0.505133 " />
<path id= "112" d=" M -9.52056 1.03528 L -8.48528 0.437559 " />
<path id= "113" d=" M -5.3033 49.4635 L -4.00921 48.7163 " />
<path id= "114" d=" M -6.156 49.379 L -3.656 47.9356 " />
<path id= "115" d=" M -7.07107 48.9898 L -3.53553 46.9486 " />
<path id= "116" d=" M -7.98613 48.3224 L -3.656 45.8224 " />
<path id= "117" d=" M -8.83883 47.4222 L -4.00921 44.6338 " />
<path id= "118" d=" M -9.57107 46.3507 L -4.57107 43.4639 " />
<path id= "119" d=" M -10.1329 45.1808 L -5.3033 42.3924 " />
<path id= "120" d=" M -10.4861 43.9922 L -6.15601 41.4922 " />
<path id= "121" d=" M -10.6066 42.8661 L -7.07107 40.8248 " />
<path id= "122" d=" M -10.5464 42.3725 L -7.5286 40.6302 " />
<path id= "123" d=" M -10.4861 41.879 L -7.98613 40.4356 " />
<path id= "124" d=" M -10.1329 41.0983 L -8.83883 40.3512 " />
</g>
</g>



<g id="Ortho_0_-1"
   transform="rotate(90,150,146.333) translate(150,146.333) scale(0.5,0.5)"
  >
<g   fill="none"
   stroke="rgb(0, 0, 0)"
   stroke-linecap="butt"
   stroke-linejoin="miter"
   stroke-width="0.700000"
   transform="scale(1,-1)"
  >
<path id= "1" d=" M -4 -7.34788e-16 L -3.98911 -0.0826966 " />
<path id= "2" d=" M -15.5291 57.9556 L -2.58819 59.6593 " />
<path id= "3" d=" M -30 51.9615 L -15.5291 57.9556 " />
<path id= "4" d=" M -42.4264 42.4264 L -30 51.9615 " />
<path id= "5" d=" M -51.9615 30 L -42.4264 42.4264 " />
<path id= "6" d=" M -57.9556 15.5291 L -51.9615 30 " />
<path id= "7" d=" M -60 -1.10218e-14 L -57.9556 15.5291 " />
<path id= "8" d=" M -57.9556 -15.5291 L -60 -1.06581e-14 " />
<path id= "9" d=" M -51.9615 -30 L -57.9556 -15.5291 " />
<path id= "10" d=" M -42.4264 -42.4264 L -51.9615 -30 " />
<path id= "11" d=" M -30 -51.9615 L -42.4264 -42.4264 " />
<path id= "12" d=" M -15.5291 -57.9556 L -30 -51.9615 " />
<path id= "13" d=" M 7.34788e-15 -60 L -15.5291 -57.9556 " />
<path id= "14" d=" M 15.5291 -57.9556 L 7.10543e-15 -60 " />
<path id= "15" d=" M 30 -51.9615 L 15.5291 -57.9556 " />
<path id= "16" d=" M 42.4264 -42.4264 L 30 -51.9615 " />
<path id= "17" d=" M 51.9615 -30 L 42.4264 -42.4264 " />
<path id= "18" d=" M 57.9556 -15.5291 L 51.9615 -30 " />
<path id= "19" d=" M 60 3.67394e-15 L 57.9556 -15.5291 " />
<path id= "20" d=" M 57.9556 15.5291 L 60 3.55271e-15 " />
<path id= "21" d=" M 51.9615 30 L 57.9556 15.5291 " />
<path id= "22" d=" M 42.4264 42.4264 L 51.9615 30 " />
<path id= "23" d=" M 30 51.9615 L 42.4264 42.4264 " />
<path id= "24" d=" M 15.5291 57.9556 L 30 51.9615 " />
<path id= "25" d=" M 2.58819 59.6593 L 15.5291 57.9556 " />
<path id= "26" d=" M 2.58819 59.6593 L -4.44089e-16 60 " />
<path id= "27" d=" M 0 60 L -2.58819 59.6593 " />
<path id= "28" d=" M -4.33013 47.5 L -4.82963 48.7059 " />
<path id= "29" d=" M -4.82963 48.7059 L -4.91481 49.353 " />
<path id= "30" d=" M -4.91481 49.353 L -5 50 " />
<path id= "31" d=" M -5 50 L -4.82963 51.2941 " />
<path id= "32" d=" M -4.82963 51.2941 L -4.33013 52.5 " />
<path id= "33" d=" M -4.33013 52.5 L -3.53553 53.5355 " />
<path id= "34" d=" M -3.53553 53.5355 L -2.5 54.3301 " />
<path id= "35" d=" M -2.5 54.3301 L -1.2941 54.8296 " />
<path id= "36" d=" M -1.2941 54.8296 L -6.66134e-16 55 " />
<path id= "37" d=" M -6.12323e-16 55 L 1.2941 54.8296 " />
<path id= "38" d=" M 1.2941 54.8296 L 2.5 54.3301 " />
<path id= "39" d=" M 2.5 54.3301 L 3.53553 53.5355 " />
<path id= "40" d=" M 3.53553 53.5355 L 4.33013 52.5 " />
<path id= "41" d=" M 4.33013 52.5 L 4.82963 51.2941 " />
<path id= "42" d=" M 4.82963 51.2941 L 5 50 " />
<path id= "43" d=" M 5 50 L 4.91481 49.353 " />
<path id= "44" d=" M 4.91481 49.353 L 4.82963 48.7059 " />
<path id= "45" d=" M 4.82963 48.7059 L 4.33013 47.5 " />
<path id= "46" d=" M 4.33013 47.5 L 3.53553 46.4645 " />
<path id= "47" d=" M 3.53553 46.4645 L 2.5 45.6699 " />
<path id= "48" d=" M 2.5 45.6699 L 1.2941 45.1704 " />
<path id= "49" d=" M 1.2941 45.1704 L 0 45 " />
<path id= "50" d=" M 0 45 L -1.2941 45.1704 " />
<path id= "51" d=" M -1.2941 45.1704 L -2.5 45.6699 " />
<path id= "52" d=" M -2.5 45.6699 L -3.53553 46.4645 " />
<path id= "53" d=" M -3.53553 46.4645 L -4.33013 47.5 " />
<path id= "54" d=" M -3.8637 1.03528 L -4 -6.66134e-16 " />
<path id= "55" d=" M -3.4641 2 L -3.8637 1.03528 " />
<path id= "56" d=" M -2.82843 2.82843 L -3.4641 2 " />
<path id= "57" d=" M -2 3.4641 L -2.82843 2.82843 " />
<path id= "58" d=" M -1.03528 3.8637 L -2 3.4641 " />
<path id= "59" d=" M 0 4 L -1.03528 3.8637 " />
<path id= "60" d=" M 1.03528 3.8637 L 0 4 " />
<path id= "61" d=" M 2 3.4641 L 1.03528 3.8637 " />
<path id= "62" d=" M 2.82843 2.82843 L 2 3.4641 " />
<path id= "63" d=" M 3.4641 2 L 2.82843 2.82843 " />
<path id= "64" d=" M 3.8637 1.03528 L 3.4641 2 " />
<path id= "65" d=" M 3.8637 1.03528 L 3.95123 0.370439 " />
<path id= "66" d=" M 4 2.44929e-16 L 3.95123 0.370439 " />
<path id= "67" d=" M 3.8637 -1.03528 L 4 2.22045e-16 " />
<path id= "68" d=" M 3.4641 -2 L 3.8637 -1.03528 " />
<path id= "69" d=" M 2.82843 -2.82843 L 3.4641 -2 " />
<path id= "70" d=" M 2 -3.4641 L 2.82843 -2.82843 " />
<path id= "71" d=" M 1.03528 -3.8637 L 2 -3.4641 " />
<path id= "72" d=" M 4.89859e-16 -4 L 1.03528 -3.8637 " />
<path id= "73" d=" M -1.03528 -3.8637 L 4.44089e-16 -4 " />
<path id= "74" d=" M -2 -3.4641 L -1.03528 -3.8637 " />
<path id= "75" d=" M -2.82843 -2.82843 L -2 -3.4641 " />
<path id= "76" d=" M -3.4641 -2 L -2.82843 -2.82843 " />
<path id= "77" d=" M -3.8637 -1.03528 L -3.4641 -2 " />
<path id= "78" d=" M -3.98911 -0.0826966 L -3.8637 -1.03528 " />
<path id= "79" d=" M 4 2.44929e-16 L 3.95123 0.370439 " />
<path id= "80" d=" M 3.95123 0.370439 L 3.8637 1.03528 " />
<path id= "81" d=" M 3.8637 1.03528 L 3.4641 2 " />
<path id= "82" d=" M 3.4641 2 L 2.82843 2.82843 " />
<path id= "83" d=" M 2.82843 2.82843 L 2 3.4641 " />
<path id= "84" d=" M 2 3.4641 L 1.03528 3.8637 " />
<path id= "85" d=" M 1.03528 3.8637 L 0 4 " />
<path id= "86" d=" M 0 4 L -1.03528 3.8637 " />
<path id= "87" d=" M -1.03528 3.8637 L -2 3.4641 " />
<path id= "88" d=" M -2 3.4641 L -2.82843 2.82843 " />
<path id= "89" d=" M -2.82843 2.82843 L -3.4641 2 " />
<path id= "90" d=" M -3.4641 2 L -3.8637 1.03528 " />
<path id= "91" d=" M -3.8637 1.03528 L -4 -6.66134e-16 " />
<path id= "92" d=" M -4 -7.34788e-16 L -3.98911 -0.0826966 " />
<path id= "93" d=" M -3.98911 -0.0826966 L -3.8637 -1.03528 " />
<path id= "94" d=" M -3.8637 -1.03528 L -3.4641 -2 " />
<path id= "95" d=" M -3.4641 -2 L -2.82843 -2.82843 " />
<path id= "96" d=" M -2.82843 -2.82843 L -2 -3.4641 " />
<path id= "97" d=" M -2 -3.4641 L -1.03528 -3.8637 " />
<path id= "98" d=" M -1.03528 -3.8637 L 4.44089e-16 -4 " />
<path id= "99" d=" M 4.89859e-16 -4 L 1.03528 -3.8637 " />
<path id= "100" d=" M 1.03528 -3.8637 L 2 -3.4641 " />
<path id= "101" d=" M 2 -3.4641 L 2.82843 -2.82843 " />
<path id= "102" d=" M 2.82843 -2.82843 L 3.4641 -2 " />
<path id= "103" d=" M 3.4641 -2 L 3.8637 -1.03528 " />
<path id= "104" d=" M 3.8637 -1.03528 L 4 2.22045e-16 " />
</g>
</g>



</svg>

