<?xml version="1.0" encoding="UTF-8" standalone="no"?>

<svg
	xmlns="http://www.w3.org/2000/svg" version="1.1"
	xmlns:freecad="http://www.freecadweb.org/wiki/index.php?title=Svg_Namespace"
	width="210mm"
	height="297mm"
	viewBox="0 0 210 297">
	<!-- Working space 20 10 200 287 -->
	<!-- Title block 20 227 200 287 -->
	<g>
		<rect
			id="drawing-border"
			style="fill:none;stroke:#000000;stroke-width:0.35;stroke-linecap:miter;stroke-miterlimit:4"
			width="180"
			height="277"
			x="20"
			y="10" />
			<!-- width-30, height-20 -->
		<g
			transform="translate(0,0)">
			<!-- A4 Portrait based for other formats width-210, height-297 -->
			<!--        page       rect   translation
			               w    h    rw   rh   tx   ty
			        A4-P  210  297  180  277    0    0
			        A3-L  420  297  390  277  210    0
			        A2-L  594  420  564  400  384  123
			        A1-L  841  594  811  574  631  297
			        A0-L 1189  841 1159  821  979  544
			-->
			<g
				id="titleblock-structure"
				style="fill:none;stroke:#000000;stroke-width:0.35;stroke-linecap:miter;stroke-miterlimit:4">
				<rect width="180" height="60" x="20" y="227" />
				<path d="m 20,239 h 180" />
				<path d="m 80,227 v 12" />
				<path d="m 140,239 v 48" />
				<path d="m 160,239 v 12" />
				<path d="m 180,239 v 12" />
				<path d="m 140,251 h 60" />
				<path d="m 140,275 h 60" />
				<path d="m 180,275 v 12" />
			</g>
			<g
				id="titleblock-text-non-editable"
				style="font-size:3px;text-anchor:start;fill:#000000;font-family:osifont"
				xml:space="preserve">
				<text x="21" y="230">Created by:</text>
				<text x="81" y="230">Title:</text>
				<text x="21" y="242">Supplementary information:</text>
				<text x="141" y="242">Size:</text>
				<text x="161" y="242">Sheet:</text>
				<text x="181" y="242">Scale:</text>
				<text x="141" y="254">Part number:</text>
				<text x="141" y="266">Drawing number:</text>
				<text x="141" y="278">Date:</text>
				<text x="181" y="278">Revision:</text>
			</g>
			<g
				id="titleblock-text-editable"
				style="font-size:5px;text-anchor:middle;fill:#000000;font-family:osifont"
				xml:space="preserve">
				<text freecad:editable="AUTHOR NAME" x="50" y="236"><tspan>AUTHOR NAME</tspan></text>
				<text freecad:editable="DRAWING TITLE" x="140" y="236"><tspan>DRAWING TITLE</tspan></text>
				<text freecad:editable="SI-1" x="80" y="248"><tspan></tspan></text>
				<text freecad:editable="SI-2" x="80" y="255"><tspan></tspan></text>
				<text freecad:editable="FreeCAD DRAWING" x="80" y="262"><tspan>FreeCAD DRAWING</tspan></text>
				<text freecad:editable="SI-4" x="80" y="269"><tspan></tspan></text>
				<text freecad:editable="SI-5" x="80" y="276"><tspan></tspan></text>
				<text freecad:editable="SI-6" x="80" y="283"><tspan></tspan></text>
				<text freecad:editable="FC-SI" x="150" y="248"><tspan>A4</tspan></text>
				<text freecad:editable="FC-SH" x="170" y="248"><tspan>X / Y</tspan></text>
				<text freecad:editable="FC-SC" x="190" y="248"><tspan>SCALE</tspan></text>
				<text freecad:editable="PN" x="170" y="260"><tspan>PN</tspan></text>
				<text freecad:editable="DN" x="170" y="272"><tspan>DN</tspan></text>
				<text freecad:editable="FC-DATE" x="160" y="284"><tspan>DD/MM/YYYY</tspan></text>
				<text freecad:editable="FC-REV" x="190" y="284"><tspan>REV A</tspan></text>
			</g>
			<!-- Set display:none to hide FreeCAD Logo -->
			<g
				style="display:inline"
				id="freecad-logo"
				transform="translate(128.5,276)"
				fill-rule="evenodd"
				stroke="#000"
				stroke-width="0.35"
				fill="none">
					<path d="m0.1524 0.15254v8.8549h1.9744v-3.4652h1.396v-1.3661h-1.396v-1.4745h3.4391v-2.5441l-5.4135-0.005z"/>
					<path d="m7.7927 3.4504-0.50715-0.176-0.48387-1.2366-0.76115 0.04-0.34718 1.2787-0.4859 0.23269-1.2119-0.53015-0.51188 0.56882 0.65892 1.1485-0.18006 0.50567-1.2366 0.48387 0.044064 0.76263 1.2787 0.34718 0.23269 0.4859-0.53421 1.2104 0.56882 0.51188 1.1485-0.65891 0.50973 0.18155 0.4798 1.2351 0.7667-0.04258 0.34311-1.2802 0.4859-0.23269 1.2145 0.5357 0.51188-0.56882-0.65891-1.1485 0.17748-0.51122 1.2351-0.4798-0.03851-0.76521-1.2802-0.34311-0.23269-0.4859 0.53163-1.216-0.56881-0.51184zm-0.5715 1.2244 0.23576 0.13679 0.20426 0.18519 0.16353 0.22101 0.11763 0.24572 0.06916 0.26489 0.01146 0.27146-0.03921 0.27139-0.08948 0.25764-0.14234 0.23834-0.17964 0.20167-0.22101 0.16353-0.24572 0.11763-0.26489 0.06916-0.27295 0.01553-0.2719-0.04-0.2576-0.089-0.2383-0.143-0.2002-0.183-0.165-0.217-0.1177-0.246-0.0676-0.269-0.0156-0.273 0.039206-0.2714 0.089484-0.25764 0.14085-0.23427 0.18113-0.20574 0.22101-0.16352 0.24572-0.11763 0.26895-0.06768 0.27147-0.01146 0.27139 0.03921 0.25764 0.08948z"/>
			</g>
		</g>
	</g>
<g id="Ortho_0_0"
   transform="rotate(-90,169.962,57.3709) translate(169.962,57.3709) scale(1.5,1.5)"
  >
<g   fill="none"
   stroke="rgb(0, 0, 0)"
   stroke-linecap="butt"
   stroke-linejoin="miter"
   stroke-width="0.233333"
   transform="scale(1,-1)"
  >
<path id= "1" d=" M 0 -10 L 0 -9.92485 " />
<path id= "2" d=" M 0 -9.92485 L 0 -9.91478 " />
<path id= "3" d=" M 0 -9.91478 L 0 -9.90337 " />
<path id= "4" d=" M 0 -9.90337 L 0 -9.20699 " />
<path id= "5" d=" M 0 -9.20699 L 0 -7.88317 " />
<path id= "6" d=" M 0 -7.88317 L 0 -6.02213 " />
<path id= "7" d=" M 0 -6.02213 L 0 -3.75068 " />
<path id= "8" d=" M 0 -3.75068 L 0 -1.22364 " />
<path id= "9" d=" M 0 -1.22364 L 0 1.3868 " />
<path id= "10" d=" M 0 1.3868 L 0 3.90273 " />
<path id= "11" d=" M 0 3.90273 L 0 6.15269 " />
<path id= "12" d=" M 0 6.15269 L 0 7.98336 " />
<path id= "13" d=" M 0 7.98336 L 0 9.26997 " />
<path id= "14" d=" M 0 9.26997 L 0 9.92485 " />
<path id= "15" d=" M 0 9.92485 L 0 10 " />
<path id= "16" d=" M 10 9.92485 L 10 10 " />
<path id= "17" d=" M 10 9.26997 L 10 9.92485 " />
<path id= "18" d=" M 10 7.98336 L 10 9.26997 " />
<path id= "19" d=" M 10 6.15269 L 10 7.98336 " />
<path id= "20" d=" M 10 3.90273 L 10 6.15269 " />
<path id= "21" d=" M 10 1.3868 L 10 3.90273 " />
<path id= "22" d=" M 10 -1.22364 L 10 1.3868 " />
<path id= "23" d=" M 10 -3.75068 L 10 -1.22364 " />
<path id= "24" d=" M 10 -6.02213 L 10 -3.75068 " />
<path id= "25" d=" M 10 -7.88317 L 10 -6.02213 " />
<path id= "26" d=" M 10 -9.20699 L 10 -7.88317 " />
<path id= "27" d=" M 10 -9.90337 L 10 -9.20699 " />
<path id= "28" d=" M 10 -9.91478 L 10 -9.90337 " />
<path id= "29" d=" M 10 -9.92485 L 10 -9.91478 " />
<path id= "30" d=" M 10 -10 L 10 -9.92485 " />
<path id= "31" d=" M 0 -9.92485 L 10 -9.92485 " />
<path id= "32" d=" M 0 -10 L 10 -10 " />
<path id= "33" d=" M 0 -9.91478 L 10 -9.91478 " />
<path id= "34" d=" M 0 -9.90337 L 10 -9.90337 " />
<path id= "35" d=" M 0 -9.20699 L 10 -9.20699 " />
<path id= "36" d=" M 0 -7.88317 L 10 -7.88317 " />
<path id= "37" d=" M 0 -6.02213 L 10 -6.02213 " />
<path id= "38" d=" M 0 -3.75068 L 10 -3.75068 " />
<path id= "39" d=" M 0 -1.22364 L 10 -1.22364 " />
<path id= "40" d=" M 0 1.3868 L 10 1.3868 " />
<path id= "41" d=" M 0 3.90273 L 10 3.90273 " />
<path id= "42" d=" M 0 6.15269 L 10 6.15269 " />
<path id= "43" d=" M 0 7.98336 L 10 7.98336 " />
<path id= "44" d=" M 0 9.26997 L 10 9.26997 " />
<path id= "45" d=" M 0 9.92485 L 10 9.92485 " />
<path id= "46" d=" M 0 10 L 10 10 " />
<path id= "47" d=" M 0 -10 L 10 -10 " />
</g>
</g>



<g id="Ortho_0_-1"
   transform="rotate(90,169.962,179.629) translate(169.962,179.629) scale(1.5,1.5)"
  >
<g   fill="none"
   stroke="rgb(0, 0, 0)"
   stroke-linecap="butt"
   stroke-linejoin="miter"
   stroke-width="0.233333"
   transform="scale(1,-1)"
  >
<path id= "1" d=" M 10 6.12323e-16 L 9.65926 2.58819 " />
<path id= "2" d=" M 9.65926 2.58819 L 8.66025 5 " />
<path id= "3" d=" M 8.66025 5 L 7.07107 7.07107 " />
<path id= "4" d=" M 7.07107 7.07107 L 5 8.66025 " />
<path id= "5" d=" M 5 8.66025 L 2.58819 9.65926 " />
<path id= "6" d=" M 2.58819 9.65926 L -4.44089e-16 10 " />
<path id= "7" d=" M 0 10 L -48.7764 9.92485 " />
<path id= "8" d=" M -48.7764 9.92485 L -50 9.91478 " />
<path id= "9" d=" M -50 9.91478 L -51.3868 9.90337 " />
<path id= "10" d=" M -51.3868 9.90337 L -53.9027 9.20699 " />
<path id= "11" d=" M -53.9027 9.20699 L -56.1527 7.88317 " />
<path id= "12" d=" M -56.1527 7.88317 L -57.9834 6.02213 " />
<path id= "13" d=" M -57.9834 6.02213 L -59.27 3.75068 " />
<path id= "14" d=" M -59.27 3.75068 L -59.9249 1.22364 " />
<path id= "15" d=" M -59.9249 1.22364 L -59.9034 -1.3868 " />
<path id= "16" d=" M -59.9034 -1.3868 L -59.207 -3.90273 " />
<path id= "17" d=" M -59.207 -3.90273 L -57.8832 -6.15269 " />
<path id= "18" d=" M -57.8832 -6.15269 L -56.0221 -7.98336 " />
<path id= "19" d=" M -56.0221 -7.98336 L -53.7507 -9.26997 " />
<path id= "20" d=" M -53.7507 -9.26997 L -51.2236 -9.92485 " />
<path id= "21" d=" M -51.2236 -9.92485 L -50 -9.91411 " />
<path id= "22" d=" M -50 -9.91411 L 7.10543e-15 -10 " />
<path id= "23" d=" M 1.22465e-15 -10 L 2.58819 -9.65926 " />
<path id= "24" d=" M 2.58819 -9.65926 L 5 -8.66025 " />
<path id= "25" d=" M 5 -8.66025 L 7.07107 -7.07107 " />
<path id= "26" d=" M 7.07107 -7.07107 L 8.66025 -5 " />
<path id= "27" d=" M 8.66025 -5 L 9.65926 -2.58819 " />
<path id= "28" d=" M 9.65926 -2.58819 L 10 8.88178e-16 " />
<path id= "29" d=" M 4.99845 -0.124525 L 4.7959 -1.41398 " />
<path id= "30" d=" M 4.7959 -1.41398 L 4.26652 -2.60707 " />
<path id= "31" d=" M 4.26652 -2.60707 L 3.44638 -3.62249 " />
<path id= "32" d=" M 3.44638 -3.62249 L 2.39138 -4.39105 " />
<path id= "33" d=" M 2.39138 -4.39105 L 1.17341 -4.86036 " />
<path id= "34" d=" M 1.17341 -4.86036 L 6.66134e-16 -4.9852 " />
<path id= "35" d=" M 6.57751e-16 -4.9852 L -0.124525 -4.99845 " />
<path id= "36" d=" M -0.124525 -4.99845 L -1.41398 -4.7959 " />
<path id= "37" d=" M -1.41398 -4.7959 L -2.60707 -4.26652 " />
<path id= "38" d=" M -2.60707 -4.26652 L -3.62249 -3.44638 " />
<path id= "39" d=" M -3.62249 -3.44638 L -4.39105 -2.39138 " />
<path id= "40" d=" M -4.39105 -2.39138 L -4.86036 -1.17341 " />
<path id= "41" d=" M -4.86036 -1.17341 L -4.9852 -1.11022e-15 " />
<path id= "42" d=" M -4.9852 -1.07475e-15 L -4.99845 0.124525 " />
<path id= "43" d=" M -4.99845 0.124525 L -4.7959 1.41398 " />
<path id= "44" d=" M -4.7959 1.41398 L -4.26652 2.60707 " />
<path id= "45" d=" M -4.26652 2.60707 L -3.44638 3.62249 " />
<path id= "46" d=" M -3.44638 3.62249 L -2.39138 4.39105 " />
<path id= "47" d=" M -2.39138 4.39105 L -1.17341 4.86036 " />
<path id= "48" d=" M -1.17341 4.86036 L 0 4.9852 " />
<path id= "49" d=" M 0 4.9852 L 0.124525 4.99845 " />
<path id= "50" d=" M 0.124525 4.99845 L 1.41398 4.7959 " />
<path id= "51" d=" M 1.41398 4.7959 L 2.60707 4.26652 " />
<path id= "52" d=" M 2.60707 4.26652 L 3.62249 3.44638 " />
<path id= "53" d=" M 3.62249 3.44638 L 4.39105 2.39138 " />
<path id= "54" d=" M 4.39105 2.39138 L 4.86036 1.17341 " />
<path id= "55" d=" M 4.86036 1.17341 L 4.99845 -0.124525 " />
<path id= "56" d=" M -45.3809 -1.91409 L -46.0337 -3.04438 " />
<path id= "57" d=" M -46.0337 -3.04438 L -46.9568 -3.96721 " />
<path id= "58" d=" M -46.9568 -3.96721 L -48.0873 -4.61968 " />
<path id= "59" d=" M -48.0873 -4.61968 L -49.3481 -4.95732 " />
<path id= "60" d=" M -49.3481 -4.95732 L -50 -4.95722 " />
<path id= "61" d=" M -50 -4.95722 L -50.6534 -4.95713 " />
<path id= "62" d=" M -50.6534 -4.95713 L -51.9141 -4.61912 " />
<path id= "63" d=" M -51.9141 -4.61912 L -53.0444 -3.96632 " />
<path id= "64" d=" M -53.0444 -3.96632 L -53.9672 -3.04323 " />
<path id= "65" d=" M -53.9672 -3.04323 L -54.6197 -1.91274 " />
<path id= "66" d=" M -54.6197 -1.91274 L -54.9573 -0.651909 " />
<path id= "67" d=" M -54.9573 -0.651909 L -54.9571 0.653353 " />
<path id= "68" d=" M -54.9571 0.653353 L -54.6191 1.91409 " />
<path id= "69" d=" M -54.6191 1.91409 L -53.9663 3.04438 " />
<path id= "70" d=" M -53.9663 3.04438 L -53.0432 3.96721 " />
<path id= "71" d=" M -53.0432 3.96721 L -51.9127 4.61968 " />
<path id= "72" d=" M -51.9127 4.61968 L -50.6519 4.95732 " />
<path id= "73" d=" M -50.6519 4.95732 L -50 4.95722 " />
<path id= "74" d=" M -50 4.95722 L -49.3466 4.95713 " />
<path id= "75" d=" M -49.3466 4.95713 L -48.0859 4.61912 " />
<path id= "76" d=" M -48.0859 4.61912 L -46.9556 3.96632 " />
<path id= "77" d=" M -46.9556 3.96632 L -46.0328 3.04323 " />
<path id= "78" d=" M -46.0328 3.04323 L -45.3803 1.91274 " />
<path id= "79" d=" M -45.3803 1.91274 L -45.0427 0.651909 " />
<path id= "80" d=" M -45.0427 0.651909 L -45.0428 -2.22045e-16 " />
<path id= "81" d=" M -45.0428 -2.33161e-16 L -45.0429 -0.653353 " />
<path id= "82" d=" M -45.0429 -0.653353 L -45.3809 -1.91409 " />
<path id= "83" d=" M 0 4.9852 L 0 10 " />
</g>
</g>



<g id="Ortho_-1_-1"
   transform="rotate(120,61.0046,163.595) translate(61.0046,163.595) scale(1.5,1.5)"
  >
<g   fill="none"
   stroke="rgb(0, 0, 0)"
   stroke-linecap="butt"
   stroke-linejoin="miter"
   stroke-width="0.233333"
   transform="scale(1,-1)"
  >
<path id= "1" d=" M 7.07107 -4.08248 L 6.83013 -1.83013 " />
<path id= "2" d=" M 6.83013 -1.83013 L 6.12372 0.546949 " />
<path id= "3" d=" M 6.12372 0.546949 L 5 2.88675 " />
<path id= "4" d=" M 5 2.88675 L 3.53553 5.02983 " />
<path id= "5" d=" M 3.53553 5.02983 L 1.83013 6.83013 " />
<path id= "6" d=" M 1.83013 6.83013 L -6.66134e-16 8.16497 " />
<path id= "7" d=" M 0 8.16497 L -34.4901 28.0165 " />
<path id= "8" d=" M -34.4901 28.0165 L -35.3553 28.5078 " />
<path id= "9" d=" M -35.3553 28.5078 L -36.336 29.0646 " />
<path id= "10" d=" M -36.336 29.0646 L -38.115 29.5232 " />
<path id= "11" d=" M -38.115 29.5232 L -39.7059 29.3608 " />
<path id= "12" d=" M -39.7059 29.3608 L -41.0004 28.5887 " />
<path id= "13" d=" M -41.0004 28.5887 L -41.9102 27.2593 " />
<path id= "14" d=" M -41.9102 27.2593 L -42.3733 25.4633 " />
<path id= "15" d=" M -42.3733 25.4633 L -42.3581 23.3231 " />
<path id= "16" d=" M -42.3581 23.3231 L -41.8657 20.9846 " />
<path id= "17" d=" M -41.8657 20.9846 L -40.9296 18.6071 " />
<path id= "18" d=" M -40.9296 18.6071 L -39.6136 16.3526 " />
<path id= "19" d=" M -39.6136 16.3526 L -38.0075 14.3747 " />
<path id= "20" d=" M -38.0075 14.3747 L -36.2206 12.8084 " />
<path id= "21" d=" M -36.2206 12.8084 L -35.3553 12.3176 " />
<path id= "22" d=" M -35.3553 12.3176 L 7.10543e-15 -8.16497 " />
<path id= "23" d=" M 8.65956e-16 -8.16497 L 1.83013 -8.94338 " />
<path id= "24" d=" M 1.83013 -8.94338 L 3.53553 -9.11231 " />
<path id= "25" d=" M 3.53553 -9.11231 L 5 -8.66025 " />
<path id= "26" d=" M 5 -8.66025 L 6.12372 -7.61802 " />
<path id= "27" d=" M 6.12372 -7.61802 L 6.83013 -6.05662 " />
<path id= "28" d=" M 6.83013 -6.05662 L 7.07107 -4.08248 " />
<path id= "29" d=" M 3.53444 -2.14228 L 3.39121 -3.11242 " />
<path id= "30" d=" M 3.39121 -3.11242 L 3.01689 -3.87046 " />
<path id= "31" d=" M 3.01689 -3.87046 L 2.43696 -4.36473 " />
<path id= "32" d=" M 2.43696 -4.36473 L 1.69096 -4.56155 " />
<path id= "33" d=" M 1.69096 -4.56155 L 0.829728 -4.44751 " />
<path id= "34" d=" M 0.829728 -4.44751 L 5.55112e-16 -4.0704 " />
<path id= "35" d=" M 4.651e-16 -4.0704 L -0.0880523 -4.03038 " />
<path id= "36" d=" M -0.0880523 -4.03038 L -0.999832 -3.33858 " />
<path id= "37" d=" M -0.999832 -3.33858 L -1.84347 -2.41927 " />
<path id= "38" d=" M -1.84347 -2.41927 L -2.56149 -1.33509 " />
<path id= "39" d=" M -2.56149 -1.33509 L -3.10494 -0.159919 " />
<path id= "40" d=" M -3.10494 -0.159919 L -3.43679 1.02615 " />
<path id= "41" d=" M -3.43679 1.02615 L -3.52507 2.0352 " />
<path id= "42" d=" M -3.52507 2.0352 L -3.53444 2.14228 " />
<path id= "43" d=" M -3.53444 2.14228 L -3.39121 3.11242 " />
<path id= "44" d=" M -3.39121 3.11242 L -3.01689 3.87046 " />
<path id= "45" d=" M -3.01689 3.87046 L -2.43696 4.36473 " />
<path id= "46" d=" M -2.43696 4.36473 L -1.69096 4.56155 " />
<path id= "47" d=" M -1.69096 4.56155 L -0.829728 4.44751 " />
<path id= "48" d=" M -0.829728 4.44751 L 1.11022e-16 4.0704 " />
<path id= "49" d=" M 0 4.0704 L 0.0880523 4.03038 " />
<path id= "50" d=" M 0.0880523 4.03038 L 0.999832 3.33858 " />
<path id= "51" d=" M 0.999832 3.33858 L 1.84347 2.41927 " />
<path id= "52" d=" M 1.84347 2.41927 L 2.56149 1.33509 " />
<path id= "53" d=" M 2.56149 1.33509 L 3.10494 0.159919 " />
<path id= "54" d=" M 3.10494 0.159919 L 3.43679 -1.02615 " />
<path id= "55" d=" M 3.43679 -1.02615 L 3.53444 -2.14228 " />
<path id= "56" d=" M -32.0891 16.9638 L -32.5507 16.3074 " />
<path id= "57" d=" M -32.5507 16.3074 L -33.2035 15.9308 " />
<path id= "58" d=" M -33.2035 15.9308 L -34.0028 15.8596 " />
<path id= "59" d=" M -34.0028 15.8596 L -34.8944 16.0986 " />
<path id= "60" d=" M -34.8944 16.0986 L -35.3553 16.3649 " />
<path id= "61" d=" M -35.3553 16.3649 L -35.8173 16.6317 " />
<path id= "62" d=" M -35.8173 16.6317 L -36.7088 17.4223 " />
<path id= "63" d=" M -36.7088 17.4223 L -37.508 18.4168 " />
<path id= "64" d=" M -37.508 18.4168 L -38.1606 19.5472 " />
<path id= "65" d=" M -38.1606 19.5472 L -38.6219 20.7366 " />
<path id= "66" d=" M -38.6219 20.7366 L -38.8607 21.904 " />
<path id= "67" d=" M -38.8607 21.904 L -38.8606 22.9696 " />
<path id= "68" d=" M -38.8606 22.9696 L -38.6215 23.861 " />
<path id= "69" d=" M -38.6215 23.861 L -38.16 24.5174 " />
<path id= "70" d=" M -38.16 24.5174 L -37.5072 24.894 " />
<path id= "71" d=" M -37.5072 24.894 L -36.7079 24.9652 " />
<path id= "72" d=" M -36.7079 24.9652 L -35.8163 24.7262 " />
<path id= "73" d=" M -35.8163 24.7262 L -35.3553 24.46 " />
<path id= "74" d=" M -35.3553 24.46 L -34.8934 24.1932 " />
<path id= "75" d=" M -34.8934 24.1932 L -34.0019 23.4025 " />
<path id= "76" d=" M -34.0019 23.4025 L -33.2026 22.408 " />
<path id= "77" d=" M -33.2026 22.408 L -32.5501 21.2776 " />
<path id= "78" d=" M -32.5501 21.2776 L -32.0887 20.0882 " />
<path id= "79" d=" M -32.0887 20.0882 L -31.85 18.9209 " />
<path id= "80" d=" M -31.85 18.9209 L -31.8501 18.3886 " />
<path id= "81" d=" M -31.8501 18.3886 L -31.8501 17.8552 " />
<path id= "82" d=" M -31.8501 17.8552 L -32.0891 16.9638 " />
<path id= "83" d=" M -3.53553 -13.1948 L -2.07107 -12.7427 " />
<path id= "84" d=" M -5.24094 -13.0259 L -3.53553 -13.1948 " />
<path id= "85" d=" M -7.07107 -12.2474 L -5.24094 -13.0259 " />
<path id= "86" d=" M -42.4264 8.23509 L -7.07107 -12.2474 " />
<path id= "87" d=" M -43.2916 8.72587 L -42.4264 8.23509 " />
<path id= "88" d=" M -45.0785 10.2922 L -43.2916 8.72587 " />
<path id= "89" d=" M -46.6847 12.2701 L -45.0785 10.2922 " />
<path id= "90" d=" M -48.0007 14.5246 L -46.6847 12.2701 " />
<path id= "91" d=" M -48.9367 16.9021 L -48.0007 14.5246 " />
<path id= "92" d=" M -49.4291 19.2407 L -48.9367 16.9021 " />
<path id= "93" d=" M -49.4443 21.3808 L -49.4291 19.2407 " />
<path id= "94" d=" M -48.9813 23.1768 L -49.4443 21.3808 " />
<path id= "95" d=" M -48.0715 24.5062 L -48.9813 23.1768 " />
<path id= "96" d=" M -46.777 25.2783 L -48.0715 24.5062 " />
<path id= "97" d=" M -1.69096 4.56155 L -3.0683 3.76635 " />
<path id= "98" d=" M -0.829728 4.44751 L -3.41442 2.95524 " />
<path id= "99" d=" M -3.52507 2.0352 L 0 4.0704 " />
<path id= "100" d=" M -39.7059 29.3608 L -46.777 25.2783 " />
<path id= "101" d=" M -41.0004 28.5887 L -48.0715 24.5062 " />
<path id= "102" d=" M -41.9102 27.2593 L -48.9813 23.1768 " />
<path id= "103" d=" M -42.3733 25.4633 L -49.4443 21.3808 " />
<path id= "104" d=" M -42.3581 23.3231 L -49.4291 19.2407 " />
<path id= "105" d=" M -41.8657 20.9846 L -48.9367 16.9021 " />
<path id= "106" d=" M -40.9296 18.6071 L -48.0007 14.5246 " />
<path id= "107" d=" M -39.6136 16.3526 L -46.6847 12.2701 " />
<path id= "108" d=" M -38.0075 14.3747 L -45.0785 10.2922 " />
<path id= "109" d=" M -36.2206 12.8084 L -43.2916 8.72587 " />
<path id= "110" d=" M -35.3553 12.3176 L -42.4264 8.23509 " />
<path id= "111" d=" M 8.65956e-16 -8.16497 L -7.07107 -12.2474 " />
<path id= "112" d=" M 1.83013 -8.94338 L -5.24094 -13.0259 " />
<path id= "113" d=" M 3.53553 -9.11231 L -3.53553 -13.1948 " />
<path id= "114" d=" M 5 -8.66025 L -2.07107 -12.7427 " />
<path id= "115" d=" M 0 4.0704 L 0 8.16497 " />
<path id= "116" d=" M 0.0880523 4.03038 L -3.5175 1.94871 " />
<path id= "117" d=" M -3.52507 2.0352 L 0 4.0704 " />
<path id= "118" d=" M 0.999832 3.33858 L -3.3768 0.811734 " />
<path id= "119" d=" M 1.84347 2.41927 L -3.00355 -0.379161 " />
<path id= "120" d=" M 2.56149 1.33509 L -2.42371 -1.54312 " />
<path id= "121" d=" M 3.10494 0.159919 L -1.67684 -2.60085 " />
<path id= "122" d=" M 3.43679 -1.02615 L -0.813429 -3.48001 " />
<path id= "123" d=" M 3.53444 -2.14228 L 0.109019 -4.11995 " />
<path id= "124" d=" M 3.39121 -3.11242 L 1.03231 -4.47434 " />
<path id= "125" d=" M 3.01689 -3.87046 L 1.92837 -4.49892 " />
<path id= "126" d=" M -35.8163 24.7262 L -38.8606 22.9686 " />
<path id= "127" d=" M -38.8606 22.4362 L -35.3553 24.46 " />
<path id= "128" d=" M -38.8605 21.9028 L -34.8934 24.1932 " />
<path id= "129" d=" M -38.6215 20.7354 L -34.0019 23.4025 " />
<path id= "130" d=" M -38.1599 19.546 L -33.2026 22.408 " />
<path id= "131" d=" M -37.5071 18.4157 L -32.5501 21.2776 " />
<path id= "132" d=" M -36.7077 17.4214 L -32.0887 20.0882 " />
<path id= "133" d=" M -35.8162 16.631 L -31.85 18.9209 " />
<path id= "134" d=" M -35.3553 16.3649 L -31.8501 18.3886 " />
<path id= "135" d=" M -34.8932 16.0983 L -31.8501 17.8552 " />
<path id= "136" d=" M -34.0015 15.8597 L -32.0891 16.9638 " />
<path id= "137" d=" M -38.1602 24.517 L -37.5072 24.894 " />
<path id= "138" d=" M -38.6218 23.8603 L -36.7079 24.9652 " />
</g>
</g>



</svg>

